PathFileType	4	(X/Y/Z)	E:\3-PhD\Data\MocapData\ElaboratedData\009\pre\dynamicElaborations\RunN3\RunN3.trc
DataRate	CameraRate	NumFrames	NumMarkers	Units	OrigDataRate	DataStartFrame
200	200	4	54	mm	200	4.530000e+02
Frame#	Time	FHD			LBHD			RBHD			C7			T10			CLAV			LSHO			LUUPA			LMUPA			LDUPA			LLEP			LMEP			LRAD			LUL			LRFIN			RSHO			RUPA1			RMUPA			RDUPA			RLEP			RMEP			RRAD			RUL			RUFIN			RASI			USACR			LSACR			RSACR			LTHI1			LTHI2			LTHI3			LTHI4			LTIB1			LTIB2			LTIB3			LTIB4			LLMAL			LHEE			LMT1			LMT2			RTHI			RTHI2			RTHI3			RTHI4			RLFC			RTIB1			RTIB2			RTIB3			RTIB4			RLMAL			RHEE			RMT1			RMT2			RMT5		
		X1	Y1	Z1	X2	Y2	Z2	X3	Y3	Z3	X4	Y4	Z4	X5	Y5	Z5	X6	Y6	Z6	X7	Y7	Z7	X8	Y8	Z8	X9	Y9	Z9	X10	Y10	Z10	X11	Y11	Z11	X12	Y12	Z12	X13	Y13	Z13	X14	Y14	Z14	X15	Y15	Z15	X16	Y16	Z16	X17	Y17	Z17	X18	Y18	Z18	X19	Y19	Z19	X20	Y20	Z20	X21	Y21	Z21	X22	Y22	Z22	X23	Y23	Z23	X24	Y24	Z24	X25	Y25	Z25	X26	Y26	Z26	X27	Y27	Z27	X28	Y28	Z28	X29	Y29	Z29	X30	Y30	Z30	X31	Y31	Z31	X32	Y32	Z32	X33	Y33	Z33	X34	Y34	Z34	X35	Y35	Z35	X36	Y36	Z36	X37	Y37	Z37	X38	Y38	Z38	X39	Y39	Z39	X40	Y40	Z40	X41	Y41	Z41	X42	Y42	Z42	X43	Y43	Z43	X44	Y44	Z44	X45	Y45	Z45	X46	Y46	Z46	X47	Y47	Z47	X48	Y48	Z48	X49	Y49	Z49	X50	Y50	Z50	X51	Y51	Z51	X52	Y52	Z52	X53	Y53	Z53	X54	Y54	Z54	

468	2.335000	-316.318965	1419.532595	701.018226	-435.275203	1419.814340	543.750614	-459.500614	1404.176925	669.400648	-516.348405	1309.288169	589.396832	-732.934120	1030.821004	566.164630	-432.655568	1162.799028	594.973279	-427.339841	1257.161562	467.165354	-449.364359	1117.454096	330.174368	-409.898339	1091.922795	335.887591	-438.562548	1056.089407	298.017988	-427.225185	941.693578	261.708917	-447.682080	898.645124	321.951362	-243.325816	1022.954776	421.399680	-203.813464	975.638231	379.785431	-180.824671	1073.442651	410.016826	-478.669623	1230.154593	758.949987	-639.439922	1158.532387	824.820137	-648.746425	1112.510179	813.712934	-702.234581	1132.595090	834.874305	-830.880390	1076.885071	844.219430	-843.812001	1081.438039	768.879164	-792.009464	818.883034	805.732123	-862.956618	818.816166	824.372655	-788.111420	771.920159	867.174473	-616.250525	805.939478	656.697905	-774.804357	926.033980	552.063459	-772.469801	902.410287	517.293980	-780.634027	888.171409	573.894144	-583.501866	694.255670	267.289759	-530.626064	636.540062	233.336181	-486.089479	647.234549	247.313348	-543.400143	580.179554	215.042957	-490.999905	307.843362	131.308445	-554.575266	315.770474	72.142848	-524.809253	288.765032	89.029027	-556.277050	209.259643	82.809589	-665.075274	110.004850	9.878048	-757.106688	69.239364	24.037427	-540.593309	54.096273	69.609616	-531.321797	56.285084	22.905342	-586.000445	618.982374	752.890585	-531.827995	614.741249	788.112343	-512.787280	643.982891	796.918083	-473.513652	551.134765	784.535010	-383.998318	504.359417	802.444569	-292.363743	342.701616	677.383953	-364.672036	278.744513	628.751627	-316.304904	274.956517	632.238722	-286.724404	253.793794	590.287792	-341.372642	173.401535	531.366097	-359.967898	170.036003	434.812856	-168.964036	154.685513	555.590110	-193.439997	133.038938	580.782406	-248.815703	87.780250	579.144774	
469	2.340000	-294.639911	1418.766912	712.439136	-411.709814	1419.072714	553.811536	-437.439096	1403.824534	679.160693	-493.438421	1308.195777	597.883362	-709.058766	1029.172431	572.242348	-409.535251	1161.264968	605.893572	-401.053545	1255.383537	478.459532	-415.826844	1117.077173	340.110989	-376.527755	1091.566819	347.402271	-403.209128	1056.123565	307.725485	-389.956383	942.188795	270.252261	-411.675392	898.193231	329.287700	-212.581801	1024.569815	435.980812	-170.963545	978.568943	394.534930	-151.133475	1076.350320	426.691238	-459.970728	1229.321234	768.935588	-623.001346	1159.327713	831.086411	-632.217213	1113.271595	820.831888	-686.234401	1134.145276	839.731770	-815.086023	1078.029102	846.406027	-826.028546	1082.558121	770.662289	-777.226975	819.912738	808.130181	-848.825937	820.579923	824.878627	-775.598668	772.771238	869.441048	-592.211782	804.473256	661.930380	-750.955209	924.547124	558.149759	-748.650893	900.987805	523.378619	-756.616547	886.655432	579.948959	-564.431671	694.152499	270.730453	-513.194346	635.536909	235.795184	-468.495567	644.579264	250.046920	-527.723842	580.155795	216.316246	-485.117665	305.471211	129.547319	-549.648111	315.049152	71.526736	-520.102723	287.436396	87.796841	-553.734474	208.578116	81.490416	-663.926075	112.395911	9.180413	-756.776464	73.229108	23.141275	-540.418978	53.885493	68.490430	-531.199085	56.270870	21.846076	-560.785044	617.323941	757.060351	-506.323952	613.470779	791.936974	-487.562603	642.830340	800.763326	-447.340468	550.526417	787.309439	-356.691510	504.018466	804.379432	-255.748896	342.364473	686.219115	-323.281769	273.742343	638.172886	-275.185765	272.228551	642.763309	-243.417607	251.335000	602.417912	-292.221390	166.605654	544.489892	-308.350717	159.911683	447.747917	-120.108824	156.422173	573.831376	-144.083966	134.281881	598.645413	-197.383775	86.655602	597.141961	
470	2.345000	-272.840769	1418.648848	724.176508	-388.233095	1418.923815	564.378867	-415.283711	1404.081731	689.458997	-470.531695	1307.564911	606.963391	-684.915813	1027.934091	578.545561	-386.361654	1160.495734	617.321112	-375.054052	1254.317938	490.391247	-383.422316	1117.622307	350.716878	-344.295070	1092.128848	359.386836	-369.208215	1057.126878	318.095865	-354.108129	943.821050	279.295466	-376.992764	898.843442	337.157133	-182.538906	1026.204802	450.679232	-139.106465	981.476053	409.294032	-122.070659	1079.022615	443.412877	-441.251554	1229.231708	779.294383	-606.361325	1161.022538	837.766711	-615.520300	1114.908147	828.389884	-669.996919	1136.557147	845.021111	-798.871097	1080.025592	849.031633	-808.016059	1084.688393	773.067015	-761.058612	822.086634	810.410556	-833.134578	823.149003	825.701557	-760.963554	774.642064	871.296617	-568.067240	803.571092	667.393038	-726.767278	923.622045	564.191794	-724.466894	900.170815	529.374786	-732.411892	885.666468	585.862905	-545.054090	693.926674	274.721571	-495.721230	634.210021	239.092010	-450.935854	641.307850	253.784136	-512.185319	579.857549	218.483506	-479.714559	303.357851	128.770462	-544.856763	314.601533	71.640620	-515.633644	286.388772	87.398193	-551.226415	208.222409	80.822993	-662.582582	115.153767	8.559509	-756.196291	77.806918	22.140875	-540.188999	53.575204	67.429511	-531.000372	56.266563	20.844482	-535.531419	615.708408	761.198864	-480.752719	612.054946	795.597534	-462.189169	641.467353	804.478641	-421.271895	549.661529	789.758223	-329.509541	503.173202	805.757914	-219.555099	342.194798	695.147597	-282.153935	269.024132	648.005886	-234.456454	269.855894	653.671553	-200.598138	249.277657	614.871685	-243.446787	160.495812	558.375510	-257.184865	150.695884	461.617964	-71.910290	158.579318	592.079588	-95.317115	135.968703	616.598970	-146.531379	86.154956	615.417082	
471	2.350000	-250.918431	1419.149793	736.210995	-364.857518	1419.302765	575.437029	-393.036000	1404.878389	700.282717	-447.615596	1307.369449	616.624186	-660.517682	1027.093600	585.065553	-363.139173	1160.434595	629.221111	-349.340465	1253.934219	502.880713	-352.224655	1118.994770	361.865814	-313.248397	1093.521504	371.695114	-336.636603	1058.987209	328.995192	-319.756183	946.451375	288.767186	-343.681398	900.471397	345.492963	-153.208937	1027.813233	465.404017	-108.257545	984.304407	423.972855	-93.630670	1081.423332	460.117315	-422.467655	1229.799134	790.011947	-589.469271	1163.502169	844.819976	-598.613890	1117.312859	836.307620	-653.481246	1139.712494	850.708273	-782.220002	1082.761542	852.050323	-789.727469	1087.681897	776.013273	-743.569221	825.226099	812.670905	-815.963574	826.375042	826.946200	-744.288022	777.376926	872.908312	-543.795594	803.155868	673.076997	-702.250663	923.202224	570.208888	-699.929881	899.906256	535.303946	-708.019894	885.150427	591.661763	-525.384109	693.549940	279.283544	-478.288630	632.505749	243.220664	-433.492425	637.415960	258.455650	-496.844706	579.190405	221.655129	-474.623982	301.585586	129.128961	-540.020780	314.498485	72.593145	-511.204809	285.690852	87.950215	-548.577585	208.264769	80.925651	-660.967664	118.341759	8.110769	-755.283012	83.049598	21.139338	-539.907753	53.167248	66.489054	-530.736640	56.272633	19.959113	-510.241099	614.122870	765.311765	-455.122067	610.475542	799.114000	-436.674459	639.874834	808.086075	-395.324295	548.514930	791.912581	-302.507685	501.843876	806.679494	-183.870579	342.185498	704.148782	-241.428074	264.627961	658.220349	-194.232125	267.846252	664.909403	-158.401543	247.626755	627.588623	-195.233053	155.103909	572.949307	-206.727523	142.444862	476.334068	-24.432729	161.063373	610.154875	-47.210232	138.015072	634.500480	-96.362865	86.200937	633.810010	
